<?xml version="1.0" standalone="no"?>
<!DOCTYPE svg PUBLIC "-//W3C//DTD SVG 20010904//EN"
 "http://www.w3.org/TR/2001/REC-SVG-20010904/DTD/svg10.dtd">
<svg version="1.0" xmlns="http://www.w3.org/2000/svg"
 width="225.000000pt" height="225.000000pt" viewBox="0 0 225.000000 225.000000"
 preserveAspectRatio="xMidYMid meet">
<metadata>
Created by potrace 1.16, written by Peter Selinger 2001-2019
</metadata>
<g transform="translate(0.000000,225.000000) scale(0.100000,-0.100000)"
fill="#000000" stroke="none">
<path d="M85 2231 c-11 -5 -31 -21 -45 -36 l-25 -27 0 -1044 0 -1044 33 -32
32 -33 560 -3 560 -2 0 430 0 430 -145 0 -145 0 0 170 0 170 144 0 144 0 5
193 c5 208 10 232 67 326 52 84 136 139 257 167 54 13 97 15 212 10 79 -4 148
-9 153 -12 4 -3 8 -72 8 -154 l0 -148 -127 -4 c-204 -7 -218 -21 -218 -233 l0
-140 168 -3 c167 -2 167 -3 163 -25 -5 -24 -23 -157 -34 -252 l-7 -60 -148 -3
-147 -3 0 -430 0 -430 310 3 310 3 32 33 33 32 0 1045 0 1045 -33 32 -32 33
-1033 2 c-567 1 -1041 -2 -1052 -6z"/>
</g>
</svg>
