<?xml version="1.0" standalone="no"?>
<!DOCTYPE svg PUBLIC "-//W3C//DTD SVG 20010904//EN"
 "http://www.w3.org/TR/2001/REC-SVG-20010904/DTD/svg10.dtd">
<svg version="1.0" xmlns="http://www.w3.org/2000/svg"
 width="100.000000pt" height="100.000000pt" viewBox="0 0 100.000000 100.000000"
 preserveAspectRatio="xMidYMid meet">
<metadata>
Created by potrace 1.16, written by Peter Selinger 2001-2019
</metadata>
<g transform="translate(0.000000,100.000000) scale(0.100000,-0.100000)"
fill="#000000" stroke="none">
<path d="M230 875 c0 -3 22 -176 50 -383 27 -207 50 -383 50 -389 0 -14 120
-19 120 -5 1 4 11 90 24 192 l22 185 12 -90 c6 -49 17 -136 24 -193 l12 -102
58 0 c32 0 58 4 58 8 0 4 23 180 50 390 27 210 50 384 50 387 0 3 -22 5 -50 5
-59 0 -53 14 -75 -185 -9 -77 -19 -153 -22 -170 -7 -31 -10 -10 -43 258 l-12
97 -53 0 -54 0 -6 -52 c-24 -201 -43 -341 -45 -328 0 8 -11 96 -23 195 l-22
180 -63 3 c-34 2 -62 0 -62 -3z"/>
</g>
</svg>
