<?xml version="1.0" standalone="no"?>
<!DOCTYPE svg PUBLIC "-//W3C//DTD SVG 20010904//EN"
 "http://www.w3.org/TR/2001/REC-SVG-20010904/DTD/svg10.dtd">
<svg version="1.0" xmlns="http://www.w3.org/2000/svg"
 width="900.000000pt" height="465.000000pt" viewBox="0 0 900.000000 465.000000"
 preserveAspectRatio="xMidYMid meet">
<metadata>
Created by potrace 1.16, written by Peter Selinger 2001-2019
</metadata>
<g transform="translate(0.000000,465.000000) scale(0.100000,-0.100000)"
fill="#000000" stroke="none">
<path d="M2755 4643 c-859 -52 -1027 -92 -1240 -294 -202 -193 -263 -356 -327
-884 -20 -169 -22 -233 -26 -1035 -4 -889 0 -1022 39 -1330 55 -437 123 -609
310 -785 183 -172 350 -225 859 -270 436 -38 541 -40 2160 -40 1418 0 1612 2
1840 18 474 33 710 65 837 112 259 98 440 296 517 565 46 163 93 507 115 844
14 205 14 1388 1 1588 -23 339 -74 690 -121 843 -86 279 -306 492 -584 564
-158 42 -470 77 -879 101 -158 9 -3357 12 -3501 3z m1953 -1810 c472 -272 860
-497 864 -501 4 -4 -163 -104 -370 -223 -207 -120 -601 -346 -874 -503 -274
-157 -499 -286 -500 -286 -2 0 -2 455 0 1011 1 719 5 1008 13 1003 6 -3 396
-229 867 -501z"/>
</g>
</svg>
